<svg xmlns="http://www.w3.org/2000/svg" xmlns:xlink="http://www.w3.org/1999/xlink" width="768" height="191" viewBox="0 0 768 191">
    <defs>
        <path id="a" d="M0 0h768v191H0z"/>
        <filter id="c" width="105.6%" height="111.8%" x="-2.8%" y="-4.8%" filterUnits="objectBoundingBox">
            <feOffset dy="1" in="SourceAlpha" result="shadowOffsetOuter1"/>
            <feGaussianBlur in="shadowOffsetOuter1" result="shadowBlurOuter1" stdDeviation="2"/>
            <feColorMatrix in="shadowBlurOuter1" result="shadowMatrixOuter1" values="0 0 0 0 0 0 0 0 0 0 0 0 0 0 0 0 0 0 0.0157382246 0"/>
            <feMerge>
                <feMergeNode in="shadowMatrixOuter1"/>
                <feMergeNode in="SourceGraphic"/>
            </feMerge>
        </filter>
        <path id="e" d="M66.933 30.137a1.102 1.102 0 1 0 1.884-1.143 1.102 1.102 0 0 0-1.884 1.143zM51.855 11.156a1.469 1.469 0 1 0-2.49 1.561 1.469 1.469 0 0 0 2.49-1.561zM76.136 0v41.87H.296V0h75.84zM27.841 31.677a1.377 1.377 0 1 0-2.755 0 1.377 1.377 0 0 0 2.755 0zM4.978 8.264a1.56 1.56 0 1 0 0 3.121 1.56 1.56 0 0 0 0-3.121z"/>
        <filter id="d" width="117.1%" height="131%" x="-8.6%" y="-13.1%" filterUnits="objectBoundingBox">
            <feOffset dy="1" in="SourceAlpha" result="shadowOffsetOuter1"/>
            <feGaussianBlur in="shadowOffsetOuter1" result="shadowBlurOuter1" stdDeviation="2"/>
            <feColorMatrix in="shadowBlurOuter1" values="0 0 0 0 0 0 0 0 0 0 0 0 0 0 0 0 0 0 0.0427139946 0"/>
        </filter>
    </defs>
    <g fill="none" fill-rule="evenodd">
        <mask id="b" fill="#fff">
            <use xlink:href="#a"/>
        </mask>
        <use fill="#FEEE00" xlink:href="#a"/>
        <g mask="url(#b)" opacity=".8">
            <path fill="#FFEC95" d="M892.498-7.529c-33.36 2.047-48.229 35.755-88.932 53.338s-90.285-5.332-121.63 15.764c-31.346 21.095-49.406 63.162-109.213 69.605-59.806 6.442-82.241 43.522-58.28 66.606 23.96 23.084 142.46 34.133 175.133 12.809 32.672-21.325 113.81-12.651 170.807 0 56.997 12.65 42.183-36.526 50.465-79.415 8.281-42.89 44.967-119.682 16.716-123.791-28.25-4.11-14.522-16.176-35.066-14.916z"/>
            <g filter="url(#c)" transform="translate(602.6 83.969)">
                <path fill="#FF9795" fill-rule="nonzero" d="M42.522 53.167L58.86 84.713h-3.558L38.608 53.167zM53.197 47.496v5.671H2.313v-5.671H51.952zM53.197 0v6.38H1.78V0z"/>
                <path fill="#FEF3BF" fill-rule="nonzero" d="M5.338 28.887V6.38h46.614v41.116H5.338V28.887zm21.931 0c.358-.2.609-.547.683-.95l2.107.117a.43.43 0 0 0 .452-.457l-.164-2.467-2.371-.592-1.383-1.967-3.152-.49v-3.247H7.828v8.86h1.58c0 .5.273.96.712 1.2.42.237.934.237 1.354 0h2.197c.42.237.933.237 1.352 0h10.894c.42.237.933.237 1.352 0v-.007zm5.912 12.484v-.875h-4.255v.875h.304v2.758h3.64V41.37h.311zm-7.116-.817V39.42h-5.516v1.134h.4v3.575h4.73v-3.575h.386zm-8.273-2.25h-.643v5.832h-7.7V38.31h-.642v-1.846h8.985v1.84zm8.125-9.417H15.023c.439-.24.712-.7.712-1.2h7.706l1.779.1c.032.46.294.874.697 1.1zm-12.246 0H11.47c.438-.24.71-.7.711-1.2h.792a1.37 1.37 0 0 0 .7 1.2z"/>
                <path fill="#FFB400" fill-rule="nonzero" d="M33.181 40.496v.875h-4.255v-.875z"/>
                <path fill="#F48A00" fill-rule="nonzero" d="M29.23 41.371h3.647v2.758H29.23z"/>
                <path fill="#73D1EF" fill-rule="nonzero" d="M30.51 27.603a.426.426 0 0 1-.451.457l-2.107-.117a1.38 1.38 0 0 0-1.36-1.627 1.38 1.38 0 0 0-1.381 1.377v.1l-1.78-.1V22.08l3.16.491 1.383 1.967 2.371.592.166 2.473z"/>
                <path fill="#58ABDE" fill-rule="nonzero" d="M27.954 27.93h.004c-.075.402-.325.75-.683.95h-1.353a1.371 1.371 0 0 1-.702-1.1v-.1c0-.76.619-1.376 1.382-1.376a1.38 1.38 0 0 1 1.383 1.377l-.01.007c.001.081-.006.162-.021.242zm-2.037.957h1.352c-.42.237-.932.237-1.352 0z"/>
                <path fill="#FFB400" fill-rule="nonzero" d="M26.065 39.42v1.134h-5.516V39.42z"/>
                <path fill="#F48A00" fill-rule="nonzero" d="M20.943 40.554h4.729v3.575h-4.729z"/>
                <path fill="#74BEEB" fill-rule="nonzero" d="M23.44 22.08v5.608h-7.71a1.38 1.38 0 0 0-1.383-1.377 1.38 1.38 0 0 0-1.382 1.377h-.792a1.38 1.38 0 0 0-1.382-1.377 1.38 1.38 0 0 0-1.383 1.377h-1.58v-8.862h15.613v3.254z"/>
                <path fill="#FF9795" fill-rule="nonzero" d="M20.252 53.167L3.558 84.713H0l16.338-31.546z"/>
                <path fill="#FFB400" fill-rule="nonzero" d="M17.792 36.457v1.846H8.807v-1.846z"/>
                <path fill="#F48A00" fill-rule="nonzero" d="M9.449 38.303h7.7v5.825h-7.7z"/>
                <path fill="#58ABDE" fill-rule="nonzero" d="M13.671 28.887h-.005a1.37 1.37 0 0 1-.701-1.2c0-.76.619-1.376 1.382-1.376a1.38 1.38 0 0 1 1.383 1.377c0 .499-.273.958-.712 1.2h.005c-.42.236-.932.236-1.352 0zM10.115 28.887a1.37 1.37 0 0 1-.707-1.2c0-.76.62-1.376 1.383-1.376a1.38 1.38 0 0 1 1.382 1.377c0 .499-.273.958-.712 1.2h.008c-.42.236-.934.236-1.354 0z"/>
                <path stroke="#FFC556" stroke-linecap="round" stroke-width=".998" d="M7.74 9.836h16.012"/>
                <path stroke="#FFC556" stroke-linecap="round" stroke-width=".78" d="M7.74 11.963h9.785"/>
                <path fill="#FA896C" fill-rule="nonzero" d="M81.231 88.837l3.28 7.04a19.96 19.96 0 0 1-3.96 2.372c-4.303 1.937-9.187 2.274-14.526 1.368a41.75 41.75 0 0 1-2.681-.55c-.792-2.089-1.31-4.835-1.659-7.988 7.124 1.876 13.821 1.884 19.546-2.242z"/>
                <path fill="#FFD700" fill-rule="nonzero" d="M76.333 37.66c.317 6.593 5.966 15.867 7.368 15.385-.792.458-1.578.877-2.357 1.256-6.786 3.313-13.157 3.756-19.183 1.797-.87-.282-1.724-.61-2.559-.981 2.535-2.755 4.007-5.475 4.092-8.153l-.012-.042c2.763-.858 5.595-2.416 8.488-4.6.28-.212.536-.454.765-.72l3.398-3.942z"/>
                <path fill="#3C2979" fill-rule="nonzero" d="M76.495 26.454c-1.779-2.437-5.79-2.738-8.709-4.124-2.186-1.037-1.628-4.278-1.601-4.43v-.178s3.914-4.607 8.006-1.772c4.092 2.836 5.338 4.962 4.626 11.342a3.543 3.543 0 0 0 1.78 2.836c1.778 1.063 4.447 3.899 1.423 5.671-3.025 1.772-5.694.886-5.694.886.121-3.122-1.806-4.3-3.058-4.732a4.752 4.752 0 0 0-1.037-.246c3.34-1.196 4.17-4.797 4.264-5.253z"/>
                <path fill="#73D1EF" fill-rule="nonzero" d="M81.052 100.096c.226.86.44 1.745.434 1.985-2.847 3.19-18.504 5.316-21.172 2.304l2.154-1.801c4.918 1.866 11.254.723 18.584-2.488z"/>
                <path fill="#F6957C" fill-rule="nonzero" d="M66.226 68.644l-8.937 7.385c.904 4.921 1.804 9.267 2.384 13.345-5.142 2.034-10.228.531-15.283-2.889 2.523-5.992 6.66-14.486 7.206-14.887.73-.531 10.565-15.5 10.565-15.5 6.026 1.95 12.397 1.516 19.183-1.797 2.442 6.72-.2 15.206-4.84 24.384l4.727 10.15c-5.725 4.126-12.418 4.119-19.55 2.242-.357-3.21-.535-6.84-.656-10.62 2.223-3.69 3.904-7.654 5.2-11.813z"/>
                <path fill="#74BEEB" fill-rule="nonzero" d="M80.552 98.25s.26.907.505 1.846c-7.33 3.211-13.675 4.354-18.583 2.481l3.558-2.967c5.327.913 10.21.576 14.52-1.36z"/>
                <path fill="#FFD700" fill-rule="nonzero" d="M63.867 38.785a14.958 14.958 0 0 0 5.11-1.83 9.197 9.197 0 0 0 2.997-2.942l1.294-2.06c1.245.433 3.18 1.61 3.058 4.732-.012.317-.01.642 0 .975l-3.39 3.943a4.984 4.984 0 0 1-.766.722c-2.893 2.183-5.725 3.74-8.488 4.598-6.181 1.92-12.017.33-17.424-5.628a16.242 16.242 0 0 1 3.737-5.671c3.978 2.966 9.27 3.957 13.872 3.161z"/>
                <path fill="#FFF" fill-rule="nonzero" d="M76.495 26.454c-.094.456-.93 4.057-4.27 5.253a7.068 7.068 0 0 1-2.846.37 5.641 5.641 0 0 1-3.107-1.24 7.238 7.238 0 0 1-.544-.456 10.964 10.964 0 0 1-2.22-2.915s-2.136-.532-1.958-2.304c.178-1.841 1.957-.354 1.957-.354-.355-1.74 2.562-6.735 2.67-6.912-.026.147-.584 3.389 1.6 4.43 2.929 1.39 6.937 1.691 8.718 4.128z"/>
                <path fill="#FFD700" fill-rule="nonzero" d="M63.765 35.267c.342-1.653 1.246-3.106 2.516-4.43a5.641 5.641 0 0 0 3.106 1.24 7.068 7.068 0 0 0 2.847-.37c.354.043.702.126 1.037.246l-1.293 2.06a9.197 9.197 0 0 1-2.998 2.942 14.958 14.958 0 0 1-5.11 1.83 7.955 7.955 0 0 1-.105-3.518z"/>
                <path fill="#3C2979" fill-rule="nonzero" d="M66.185 17.722v.178c-.105.177-3.016 5.166-2.669 6.911 0 0-1.779-1.487-1.957.355-.178 1.772 1.957 2.304 1.957 2.304a10.964 10.964 0 0 0 2.22 2.915s-5.778 1.338-6.134-5.75a8.126 8.126 0 0 1 .88-3.944c.698-1.418 1.71-2.566 2.678-3.144 1.78-1.065 3.025.175 3.025.175z"/>
                <path fill="#FFD700" fill-rule="nonzero" d="M65.737 30.385c.178.158.355.31.544.455-1.272 1.32-2.174 2.774-2.516 4.431-4.946-2.5-8.819-6.431-11.514-11.936 1.167-2.245 3.001-4.298 5.787-6.073.712 1.417 1.518 2.605 2.443 3.43a8.126 8.126 0 0 0-.88 3.946c.357 7.085 6.136 5.747 6.136 5.747z"/>
                <path fill="#FA896C" fill-rule="nonzero" d="M59.673 89.374c.378 2.506.592 5.034.64 7.567a69.636 69.636 0 0 1-3.111-.283c-3.959-.454-7.873-1.28-11.29-2.659a24.83 24.83 0 0 1-3.39-1.662c-.37-.152.518-2.642 1.868-5.848 5.055 3.418 10.141 4.914 15.283 2.885z"/>
                <path fill="#FFBD00" fill-rule="nonzero" d="M58.04 17.258c-2.786 1.772-4.626 3.828-5.788 6.073a35.773 35.773 0 0 1-1.722-4.19c.223-.104.447-.217.67-.341 1.78-.98 3.609-2.616 5.557-4.445a32.35 32.35 0 0 0 1.283 2.903z"/>
                <path fill="#74BEEB" fill-rule="nonzero" d="M57.202 96.658c.475.953.482 2.48.343 4.19-8.26.648-16.565.462-24.787-.555 5.268-1.514 9.963-3.407 13.153-6.297 3.418 1.382 7.332 2.208 11.291 2.662z"/>
                <path fill="#73D1EF" fill-rule="nonzero" d="M57.545 100.847c-.064.8-.16 1.638-.256 2.481-11.34.518-21.706.26-30.068-1.595 1.888-.45 3.745-.92 5.537-1.433a123.207 123.207 0 0 0 24.787.547z"/>
                <path fill="#FFF" fill-rule="nonzero" d="M51.907 12.361c-.44-.501-4.366-4.989-3.693-6.16.638-1.106 4.827 4.298 5.709 5.451a.059.059 0 0 0 .107-.046c-.14-.709-.422-2.672.59-3.105 1.246-.531 2.135 5.849 2.135 5.849-1.948 1.834-3.78 3.47-5.56 4.45 0 0-6.97-5.538-6.72-6.04.383-.762 1.846-.039 3.116.792-.452-.443-2.76-2.564-2.226-3.096.502-.5 4.626 2.926 5.114 3.327-.476-.447-4.534-4.257-3.865-5.099.67-.842 4.829 3.22 5.293 3.677zm.032.032a.051.051 0 0 0-.014-.014l.014.014z"/>
                <path fill="#FFBD00" fill-rule="nonzero" d="M44.444 38.078c.533-1.322 1.574-2.534 2.846-3.697.128-.118.262-.237.395-.354l2.313 1.595a16.242 16.242 0 0 0-3.736 5.671 7.538 7.538 0 0 1-1.957-2.836c.039-.127.085-.253.139-.379z"/>
                <path fill="#FFF" fill-rule="nonzero" d="M42.876 30.835c-.078-.115-3.395-5.001-2.847-5.317 1.246-.708 5.516 5.849 5.516 5.849s0-3.013.712-3.013c.711 0 1.028 6.026 1.028 6.026-1.269 1.162-2.3 2.374-2.847 3.696-.61-.427-8.848-6.202-8.504-6.71.343-.506 4.506 1.71 4.626 1.773-.121-.105-4.245-3.711-3.559-4.253.59-.46 3.955 2.279 4.617 2.826-.197-.207-3.538-3.721-3.193-4.244.345-.523 4.334 3.255 4.451 3.367z"/>
                <path fill="#3C2979" fill-rule="nonzero" d="M173.113 107.93a32.32 32.32 0 0 1-1.756.47c-4.172 1.01-8.485 1.241-12.915.793a47.035 47.035 0 0 1-1.697-.2c-5.872-14.178-4.982-32.432-5.872-40.762-6.462 11.355-7.5 25.745-5.515 41.825a84.31 84.31 0 0 1-2.865-.177 60.68 60.68 0 0 1-10.27-1.624 41.743 41.743 0 0 1-1.81-.503c1.026-17.304 4.2-33.256 10.831-47.03 1.474.28 2.97.421 4.47.42.694-2.848 1.532-5.364 2.628-7.286l.421.066c.726.109 1.43.2 2.114.271v.037c.516 2.352.432 5.174 0 7.975 4.245 1.14 8.408 1.17 12.472-.067 1.357 16.923 4.147 32.583 9.764 45.791zM158.702 13.823c13.166-10.81 23.485 1.95 12.81 6.735-.48.216-.976.394-1.484.532-6.674 1.788-10.793-5.317-10.793-5.317.28 2.267-3.202 3.013-3.736 5.317-.89-2.482-.89-6.203 1.957-7.267.746-.278 1.246 0 1.246 0z"/>
                <path fill="#FFF" fill-rule="nonzero" d="M159.235 15.773s4.12 7.105 10.793 5.317c0 0-.313 3.237-2.996 4.808-.89.531-2.041.861-3.527.836-.536-.01-1.072-.06-1.6-.15a7.997 7.997 0 0 1-3.652-1.569 8.383 8.383 0 0 1-2.754-3.924c.534-2.305 4.016-3.059 3.736-5.318z"/>
                <path fill="#F27F74" fill-rule="nonzero" d="M167.032 25.9c4.517 7.657 7.164 21.607-2.818 26.64-3.11 1.57-7.448 2.273-13.344 1.653a53.007 53.007 0 0 1-2.114-.271v-9.57a25.205 25.205 0 0 0 4.525-.798c3.284-.914 6.118-2.594 8.26-5.447 1.568-3.096 1.648-5.482.07-7.077a20.112 20.112 0 0 0 1.887-4.29c1.486.024 2.637-.314 3.527-.837l.007-.004z"/>
                <path fill="#F27F74" fill-rule="nonzero" d="M163.345 62.138c-4.063 1.24-8.227 1.207-12.472.067.433-2.801.516-5.623 0-7.975v-.037c5.89.62 10.227-.083 13.344-1.653-.06 3.223.304 6.218 1.78 8.602a22.75 22.75 0 0 1-2.652.996z"/>
                <path fill="#FF9795" fill-rule="nonzero" d="M163.505 26.734a20.112 20.112 0 0 1-1.887 4.29c-1.966 3.29-4.747 5.28-8.343 5.971v-.283c2.984-3.66 5.564-7.392 4.982-11.697a7.997 7.997 0 0 0 3.65 1.569c.529.09 1.063.14 1.598.15z"/>
                <path fill="#F27F74" fill-rule="nonzero" d="M161.618 31.027c1.578 1.595 1.498 3.98-.07 7.076-2.135 2.853-4.981 4.533-8.26 5.448l-.013-.043v-6.513c3.596-.69 6.377-2.68 8.343-5.968zM158.253 25.015c.586 4.305-1.994 8.037-4.981 11.697v-12.18c.87-.968 1.896-1.082 3.425-1.126.44.605.963 1.146 1.553 1.607l.003.002z"/>
                <path fill="#F9D1C9" fill-rule="nonzero" d="M144.201 23.394h-15.567v-5.849h25.086v5.849h-9.519z"/>
                <path fill="#F27F74" fill-rule="nonzero" d="M153.275 43.508l.013.043c-1.48.403-2.995.67-4.525.797-.765.069-1.544.114-2.338.135v.679s-1.6.03-4.27-.147c-1.423-.094-3.508-1.179-4.95-1.418h5.751v-.089h10.32z"/>
                <path fill="#FFC453" fill-rule="nonzero" d="M129.079 30.837v-7.444H153.275v13.318c-.087.11-.178.219-.267.329l.267-.048v6.516H129.08V30.837z"/>
                <path fill="#47CCFF" fill-rule="nonzero" d="M153.275 36.712v.284l-.267.048c.09-.114.18-.226.267-.332z"/>
                <path fill="#FF9795" fill-rule="nonzero" d="M148.763 44.348v9.57l-.421-.065a59.337 59.337 0 0 1-1.917-.335V44.48a35.744 35.744 0 0 0 2.338-.132z"/>
                <path fill="#F27F74" fill-rule="nonzero" d="M148.338 53.856c-1.096 1.922-1.934 4.431-2.628 7.286-1.5.001-2.996-.14-4.47-.42-2.668-.523-5.043-1.542-7.094-3.124 2.202-2.324 3.969-4.752 4.981-7.359 3.087-.209 7.295-.709 7.295-.709v3.988c.657.128 1.296.24 1.916.338z"/>
                <path fill="#FFF" fill-rule="nonzero" d="M146.425 45.162v4.372s-4.207.496-7.294.709c-.826.057-1.571.092-2.135.092-2.692 0-11.387-4.962-10.141-6.38a.785.785 0 0 1 .624-.236c2.05 0 7.426 4.147 11.83 2.894 0 0-4.448-1.95-3.38-2.835a.923.923 0 0 1 .355-.177h.918c1.441.239 3.527 1.323 4.95 1.417 2.672.174 4.273.144 4.273.144z"/>
                <path fill="#F9D1C9" fill-rule="nonzero" d="M144.646 9.57v5.848H119.56V9.57z"/>
                <path fill="#FFC453" fill-rule="nonzero" d="M144.201 15.418v2.127h-15.567v5.849h.445v1.949h-9.074v-9.925zM120.005 30.837h9.074v12.671h13.877v.089h-5.75a2.182 2.182 0 0 0-.918 0h-17.529v-12.76h1.246z"/>
                <path fill="#47CCFF" fill-rule="nonzero" d="M137.206 43.597h-.918c.302-.065.615-.065.918 0z"/>
                <path fill="#F9D1C9" fill-rule="nonzero" d="M120.005 30.837h-1.69v-5.494h10.764v5.494h-9.074z"/>
                <path fill="#FEF3BF" fill-rule="nonzero" d="M101.412 78.156h1.146l.011.088.004-.088h-.008l-.693-5.703-.782-6.435c0-.01 0-.183-.02-.49a46.559 46.559 0 0 0 .978 1.37c.203.27.406.537.61.801l-1.596-2.183c-.05-1.265-.178-4.727-.475-8.446.226.159.415.28.534.354a.059.059 0 0 0 .089-.048h.382c.043 2.658.57 8.998.586 9.177 1.43-3.803 9.079-23.826 11.333-23.665 2.49.177 1.423 14.355-1.068 15.773-2.834 1.613-8.24 4.358-9.392 11.01a15.732 15.732 0 0 0-.215 2.99l-.26 5.43v.065h9.867l-4.092 15.772h-11.92l-3.736-15.772h8.718l1.145-.006-.694-5.703-.78-6.43c-.002-.008-.01-.187-.027-.5-6.405-9.293-10.702-21.504-11.031-16.42-.7 10.794 6.583 18.076 9.607 19.494 1.192.555 1.72 2.158 1.925 3.899.311 2.678-.145 5.665-.146 5.666zm6.405-50.864c6.94-1.24-6.86 21.3-6.86 21.3l-.078-.564s0-19.495 6.938-20.736zm-2.134 20.381c1.779 2.836-3.38 11.697-3.38 11.697l-.223-4.516s1.823-10.016 3.603-7.18zm-4.093 9.393v.307h-.377a.062.062 0 0 0 0-.025c-.126-.26-.384-.789-.711-1.436-.426-5.003-1.136-10.102-2.283-10.725-2.313-1.24-11.209-9.925-8.896-14.887 2.313-4.962 3.38-4.962 3.38-2.836 0 2.127 5.872 13.824 6.761 16.482-.009.005 2.126 10.639 2.126 13.12zm-1.097-1.148c.033.382.066.767.094 1.148-.906-.636-2.423-1.854-2.91-3.19-.712-1.95-1.602-3.19-.535-3.013.721.119 2.363 3.12 3.35 5.055z"/>
                <path fill="#EDF6FF" fill-rule="nonzero" d="M103.051 69.672c.139 2.897-.406 7.81-.475 8.42l.26-5.43a15.732 15.732 0 0 1 .215-2.99z"/>
                <path fill="#FFB78A" fill-rule="nonzero" d="M102.576 78.092v.064s-.005-.022 0-.064zM102.572 78.156l-.003.088-.01-.088h.01zM102.177 66.55l-.04.108zM102.08 66.824l-.027.073a.214.214 0 0 1 .027-.073z"/>
                <path fill="#EDF6FF" fill-rule="nonzero" d="M101.21 57.353a.062.062 0 0 1 0 .025.058.058 0 0 1-.09.048c-.124-.08-.312-.2-.533-.355-.029-.38-.06-.765-.094-1.148.341.641.59 1.17.717 1.43z"/>
            </g>
        </g>
        <g mask="url(#b)" opacity=".8">
            <path fill="#FFEC95" d="M-130.414 71.422c30.435 1.866 43.999 32.588 81.132 48.613 37.132 16.026 83.981 45.307 114.58 20.137 30.6-25.17 21.02-52.293 75.58-46.42 54.56 5.872 95.462 143.758 73.603 164.797-21.859 21.039-129.965 31.11-159.771 11.674-29.807-19.436-92.143-75.986-144.14-64.456-51.998 11.53-50.168 31.166-57.724-7.925-7.555-39.09-41.022-109.08-15.25-112.825 25.772-3.746 13.249-14.744 31.99-13.595z"/>
            <path fill="#F27F74" fill-rule="nonzero" d="M44.949 139.088c1.406.383 2.282 1.34 2.387 3.122-.551 1.845-1.311 3.402-2.37 4.605l-.017-.015v-7.712z"/>
            <path fill="#F88F85" fill-rule="nonzero" d="M44.949 139.088a2.84 2.84 0 0 0-2.641-2.8v-.058a8.263 8.263 0 0 0 6.267-2.387c8.176 5.49 7.362 15.929 1.144 22.404a18.21 18.21 0 0 1-5.428 3.891c-4.938 2.308-11.361 2.615-18.596-.753l4.873-11.161c7.392 2.369 11.795 1.56 14.403-1.409 1.06-1.203 1.821-2.754 2.37-4.605-.11-1.782-.98-2.739-2.392-3.122z"/>
            <path fill="#74BEEB" fill-rule="nonzero" d="M44.949 146.8l.016.015c-2.607 2.97-7.01 3.778-14.397 1.409a50.959 50.959 0 0 1-3.426-1.24l-.23.564s-1.153-.878-2.348-1.653v-9.01h3.58c1.19 2.612.82 9.917.82 9.917l15.985-.002z"/>
            <path fill="#FFF" fill-rule="nonzero" d="M-2.618 129.72a22.658 22.658 0 0 0-.474-.174l.474.174zm-.55 1.837c-.274-.09-8.435-2.771-8.08-3.857.297-.89 5.76.98 7.837 1.728-2.048-.77-7.294-2.857-6.552-3.748.918-1.102 10.1 2.02 10.1 2.02s-3.122-4.04-1.653-4.958c1.47-.918 6.427 5.877 6.427 5.877a23.998 23.998 0 0 0-1.983 7.626h-.086c-.268.452-13.123-2.312-12.621-3.763.279-.808 5.55.47 6.473.7-1.049-.274-7.774-2.057-7.943-2.903-.174-.91 7.814 1.208 8.079 1.278h.001z"/>
            <path fill="#3C2979" fill-rule="nonzero" d="M34.122 122.362c-4.591-2.37-7.876-6.486-1.837-9.167 8.264-3.673 6.611 1.102 8.631 2.203 3.935 2.147 10.423.865 11.753 4.591 2.72 7.616-2.797 12.367-2.939 12.488.026-.085 1.572-5.074-1.101-6.795-2.571-1.653-3.49-1.601-7.713-1.469-1.948.06-4.53-.683-6.794-1.851z"/>
            <path fill="#45ADED" fill-rule="nonzero" d="M28.154 136.88h-2.456s.52-.918 1.438-.918c.426.004.759.35 1.018.918z"/>
            <path fill="#ED7165" fill-rule="nonzero" d="M24.382 158.735a36.307 36.307 0 0 1-1.653-.918l.285-.7 3.893-9.571.23-.564c1.208.485 2.352.899 3.431 1.242l-4.864 11.16a27.4 27.4 0 0 1-1.322-.649z"/>
            <path fill="#F27F74" fill-rule="nonzero" d="M42.165 136.276l-15.029-.31c-.918 0-1.438.918-1.438.918h-1.133v4.591h-.183c-5.965.722-11.617.944-16.869.523-.367-3.582.16-7.162 1.15-10.735 6.537 3.34 15.425 2.501 24.943.538.609.767 1.339 1.429 2.161 1.961 2.529 1.686 4.708 2.367 6.545 2.465v.057l-.147-.008z"/>
            <path fill="#FFE9D3" fill-rule="nonzero" d="M48.621 125.682c2.676 1.719 1.13 6.708 1.102 6.795a7.773 7.773 0 0 1-1.144 1.362 8.263 8.263 0 0 1-6.267 2.388c-1.837-.098-4.016-.779-6.545-2.465a9.027 9.027 0 0 1-2.161-1.961c-3.306-4.277.431-9.325.516-9.439 2.264 1.168 4.846 1.912 6.794 1.851 4.218-.132 5.134-.184 7.705 1.47z"/>
            <path fill="#74BEEB" fill-rule="nonzero" d="M44.295 160.138v4.108H24.382v-5.51c.44.232.881.447 1.316.65 7.236 3.367 13.66 3.06 18.597.752z"/>
            <path fill="#F27F74" fill-rule="nonzero" d="M50.217 178.748c-9.046 2.259-17.618 1.515-25.652-2.654a42.112 42.112 0 0 1-7.529-5.053c2.388-3.949 4.013-8.837 5.249-14.223.455.183.734.301.734.301l-.284.7c.554.327 1.105.633 1.652.918v5.509h19.908v-4.108a18.21 18.21 0 0 0 5.428-3.891c.562 7.162 2.22 14.235 4.775 21.22-1.438.5-2.864.927-4.28 1.28z"/>
            <path fill="#FFF" fill-rule="nonzero" d="M18.85 152.851c-.39-.198-5.84-2.967-5.486-4.03.354-1.064 6.438 2.02 6.78 2.194-.314-.184-5.484-3.324-5.127-4.215.356-.89 6.081 2.654 6.243 2.755-.184-.156-6.416-5.335-5.876-6.06.54-.725 8.263 4.775 8.263 4.775s-2.203-2.939-1.652-3.49c.268-.268 1.434.379 2.57 1.113a44.958 44.958 0 0 1 2.35 1.653l-3.894 9.571s-.274-.11-.734-.301c-2.248-.935-8.921-3.807-8.921-4.876-.002-1.237 5.114.764 5.485.911z"/>
            <path fill="#ED7165" fill-rule="nonzero" d="M8.663 131.263c-.99 3.573-1.524 7.153-1.15 10.735a59.644 59.644 0 0 1-4.433-.523 23.102 23.102 0 0 1-.147-5.228 23.998 23.998 0 0 1 1.984-7.627 15.965 15.965 0 0 0 3.746 2.643z"/>
            <path fill="#8DD2FC" fill-rule="nonzero" d="M44.949 139.117v7.683H28.973s.367-7.308-.82-9.916c-.258-.57-.59-.918-1.017-.918l15.029.31h.143a2.84 2.84 0 0 1 2.64 2.804v.037z"/>
            <path fill="#3C2979" fill-rule="nonzero" d="M37.77 204.084c-.244-6.06-1.469-11.652-2.921-17.985l-9.733 9.365 12.654 8.62zm-.13 6.576c-2.976 3.876-6.536 6.313-10.68 7.31-4.185-7.688-10.294-15.371-17.996-23.051l15.609-18.82c8.034 4.17 16.606 4.913 25.651 2.654.638 16.954 2.799 31.184 7.94 40.1-7.745 5.213-15.397 7.035-22.94 4.717.381-1.359.717-2.67 1.008-3.943a62.857 62.857 0 0 0 1.408-8.967z"/>
            <path fill="#FFC453" fill-rule="nonzero" d="M176.43 134.68c6.592 0 11.936 5.344 11.936 11.937 0 6.592-5.344 11.936-11.936 11.936s-11.936-5.344-11.936-11.936a11.937 11.937 0 0 1 11.936-11.937zm1.827 12.238c4.04.551 4.774-4.223 3.122-5.876l-2.204 2.938-1.836-1.285 1.469-2.938c-3.49 0-5.098 3.121-2.571 6.06l-4.407 6.06 2.754 2.02 3.673-6.979z"/>
            <path fill="#FFC1B2" fill-rule="nonzero" d="M178.266 182.242v3.673H78.738v-3.673h77.492z"/>
            <path fill="#F7937B" fill-rule="nonzero" d="M81.308 220.32v-34.405h94.204v42.224H81.308z"/>
            <path fill="#FEF3BF" fill-rule="nonzero" d="M156.629 179.855h1.07a3.539 3.539 0 0 1-.393 1.535c-.253.483-.62.852-1.076.852h-24.423l-.184-2.387h25.006z"/>
            <path fill="#74BEEB" fill-rule="nonzero" d="M156.09 148.576c1.389 8.251 1.271 19.21.539 31.28h-25.006l-5.294-9-.336-6.094c3.857 2.676 8.644 5.562 11.14 5.362 4.59-.367 15.505-19.416 15.505-19.416a13.222 13.222 0 0 0 3.453-2.132z"/>
            <path fill="#3C2979" fill-rule="nonzero" d="M137.724 121.458c.066-.183.136-.358.205-.528l.022-.052c.366-.816.79-1.605 1.27-2.36a.06.06 0 0 0 0-.029c.067-.1.106-.152.106-.152s8.37-2.951 12.386 3.121h-.013c1.994 3.018 2.918 8.264 1.21 17.196-1.32 6.914 5.142 8.146 5.142 8.146a31.144 31.144 0 0 1-1.976 1.776 13.222 13.222 0 0 1-3.452 2.13c-2.439.972-5.142.852-8.607-1.065a26.498 26.498 0 0 1-3.41-2.29c3.147-1.05 5.356-4.436 5.828-7.626.13-.802.132-1.618.006-2.42a5.524 5.524 0 0 0-.318-1.156c-1.438-3.597-5.325-3.489-8.08-7.896-1.102-1.761-1.116-3.7-.734-5.392 0-.025 0-.05.014-.075v-.031c.105-.44.234-.872.388-1.297h.013z"/>
            <path fill="#8DD2FC" fill-rule="nonzero" d="M144.032 149.641c3.46 1.917 6.168 2.037 8.606 1.065 0 0-10.915 19.05-15.506 19.416-2.495.2-7.286-2.686-11.139-5.362-3.178-2.203-5.718-4.273-5.803-4.341l-.662-1.128c2.862-2.561 5.073-5.973 6.794-10.008l9.15 10.008 8.56-9.65z"/>
            <path fill="#FFF" fill-rule="nonzero" d="M146.13 136.15c.148.372.254.76.318 1.155-2.361 1.246-4.567 1.869-6.515 1.924h-.77c-4.99-.248-8.08-4.438-7.356-11.52 1.5-3.055 3.328-4.693 5.51-4.84-.38 1.691-.368 3.63.734 5.391 2.754 4.4 6.642 4.292 8.08 7.89z"/>
            <path fill="#74BEEB" fill-rule="nonzero" d="M144.032 149.641l-8.552 9.647-9.15-10.008-2.603-2.847-.367-.268c3.223-4.53 7.613-6.36 12.807-6.818v.016c.06.64.128 1.273.207 1.903a53.46 53.46 0 0 0 2.226 10.125 31.272 31.272 0 0 1 3.353-10.467c.27-.519.554-1.036.852-1.55 1.189.09 2.403.213 3.643.367-.472 3.19-2.68 6.576-5.828 7.627a26.498 26.498 0 0 0 3.412 2.273z"/>
            <path fill="#FFF" fill-rule="nonzero" d="M142.807 139.367c-.3.514-.584 1.03-.852 1.55-1.962.778-3.803.854-5.542.343h-.037a63.422 63.422 0 0 1-.208-1.902v-.017a32.567 32.567 0 0 1 2.997-.125c.252.015.509.017.77 0 .936.031 1.895.08 2.872.15z"/>
            <path fill="#73D1EF" fill-rule="nonzero" d="M141.955 140.917a31.272 31.272 0 0 0-3.353 10.467 53.46 53.46 0 0 1-2.226-10.126h.037c1.739.513 3.58.437 5.542-.341z"/>
            <path fill="#3C2979" fill-rule="nonzero" d="M139.15 118.447a.051.051 0 0 1 .08.042 14.232 14.232 0 0 0-1.286 2.387l-.022.052c-.077.183-.149.354-.213.529h-2.861a29.119 29.119 0 0 1 4.303-3.01zm-4.302 3.011h2.868c-.162.421-.289.855-.38 1.297v.031l-.016.075c-2.178.147-4.005 1.785-5.51 4.841-.286-2.407.972-4.427 3.038-6.244z"/>
            <path fill="#FFE463" fill-rule="nonzero" d="M131.623 179.855l.184 2.387H98.02c-.919 0-1.837-1.469-1.837-2.387h35.441z"/>
            <path fill="#FFFAE2" fill-rule="nonzero" d="M126.33 170.855l5.293 8.998h-35.44l-5.51-9.365-2.921-4.966-5.829-9.907h17.932v-3.856h14.314c.574 0 1.106.304 1.398.798l1.526 2.595 2.433 4.136.663 1.127 3.995 6.795 2.145 3.645zm-19.313-5.048a2.295 2.295 0 1 0-4.591 0 2.295 2.295 0 0 0 4.59 0z"/>
            <path fill="#8DD2FC" fill-rule="nonzero" d="M123.727 146.433l2.602 2.847c-1.73 4.04-3.94 7.446-6.794 10.008l-2.433-4.136c2.312-1.735 4.28-4.479 6.084-7.713.176-.317.36-.664.541-1.006z"/>
            <path fill="#E0EDFE" fill-rule="nonzero" d="M125.993 164.751l-1.807 2.453-3.996-6.794c.085.075 2.625 2.137 5.803 4.341zM123.36 146.165l.367.268c-.183.342-.367.68-.55 1.01 0 0-.184-.183-.517-.45l.15-.009c.179-.283.363-.556.55-.819z"/>
            <path fill="#FFF" fill-rule="nonzero" d="M122.66 146.993c.335.274.516.45.516.45-1.803 3.23-3.771 5.974-6.083 7.713l-1.526-2.595a1.623 1.623 0 0 0-1.398-.799h-3.893c-.748-1.278-.916-2.747-.505-4.407 0 0-.527-.037-1.24-.15.37-1.046.63-2.126.776-3.225 1.94-.065 4.208-.011 6.157.07 3.375.134 6.102 2.053 7.196 2.943zm-13.353-3.017a16.006 16.006 0 0 1-.775 3.225c-1.548-.244-3.97-.852-3.719-2.237.116-.637 2.046-.907 4.494-.988z"/>
            <path fill="#FFF" fill-rule="nonzero" d="M108.454 135.966c.862 2.826 1.194 5.417.853 8.01-2.448.08-4.378.35-4.494.988-.252 1.385 2.17 1.993 3.719 2.237a22.34 22.34 0 0 1-2.25 4.558h-6.427v-14.691h.55v-1.387l8.05.266v.019z"/>
            <path fill="#F27F74" fill-rule="nonzero" d="M95.964 121.341c13.892 3.162 13.073 14.625 13.073 14.625l-.583-.019-8.048-.266v-6.142H70.29v5.15l-5.876-.192s.608-11.54 17.976-13.632c.305.265.632.504.977.715 0 0-.223 5.204 4.185 5.388 4.407.183 5.415-4.141 5.415-4.141 1.29-.313 2.268-.832 2.997-1.486z"/>
            <path fill="#F9D1C9" fill-rule="nonzero" d="M70.29 134.69v-5.151h30.116v7.529H70.29v-2.378z"/>
            <path fill="#3C2979" fill-rule="nonzero" d="M96.9 111.032a15.851 15.851 0 0 1-5.309 2.53c-4.223 1.102-11.018-3.122-11.018-3.122-.787-.25-2.148 5.234.735 9.182-2.387-1.102-4.817-10.581-3.122-13.405C79.84 103.462 97.1 92.26 99.855 98.87c2.479 5.948.15 9.838-2.955 12.16z"/>
            <path fill="#FFFAE2" fill-rule="nonzero" d="M99.855 151.759v3.856H81.923l-.83-1.412a1.622 1.622 0 0 1 1.398-2.444h17.364z"/>
            <path fill="#FFC453" fill-rule="nonzero" d="M99.855 137.068v14.69H82.49a1.621 1.621 0 0 0-1.398 2.445l.83 1.412H70.841v-18.547h29.014z"/>
            <path fill="#3C2979" fill-rule="nonzero" d="M98.019 182.242H78.737v3.673h2.571v41.574h-7.986v-57.34l17.351.34 5.51 9.366c0 .913.923 2.387 1.836 2.387z"/>
            <path fill="#FFF" fill-rule="nonzero" d="M95.964 121.341c-.735.654-1.706 1.173-2.997 1.486-1.164.282-2.586.396-4.314.284-2.444-.158-4.144-.822-5.286-1.531a7.424 7.424 0 0 1-.977-.718 4.912 4.912 0 0 1-1.082-1.244c-2.883-3.948-1.522-9.431-.735-9.181 0 0 6.795 4.223 11.018 3.121a15.851 15.851 0 0 0 5.31-2.526c.053.132 2.805 6.961-.937 10.309z"/>
            <path fill="#F27F74" fill-rule="nonzero" d="M87.752 165.522l2.921 4.968-17.351-.34-1.38-.028v-8.171l.11-.122c3.729 3.293 8.898 4.672 15.683 3.702l.017-.009z"/>
            <path fill="#FFE3DC" fill-rule="nonzero" d="M88.653 123.111c1.728.112 3.15 0 4.314-.284 0 0-1.008 4.324-5.415 4.14-4.408-.183-4.185-5.387-4.185-5.387 1.142.709 2.842 1.373 5.286 1.531z"/>
            <path fill="#FFF" fill-rule="nonzero" d="M81.923 155.615l5.829 9.907-.017.01c-6.794.97-11.954-.41-15.684-3.703-5.762-5.086-8.093-14.735-7.637-27.332l5.876.193v2.378h.55v18.547h11.083z"/>
            <path fill="#FFC453" fill-rule="nonzero" d="M69.45 78.003c6.853 0 12.408 5.555 12.408 12.408 0 6.852-5.555 12.407-12.407 12.407s-12.407-5.555-12.407-12.407c0-6.853 5.555-12.408 12.407-12.408zm3.893 17.517c.487-4.136.73-11.435-2.19-13.138-3.009-1.754-5.108-.73-5.108-.73v5.84h2.557c.737 0 1.335.597 1.335 1.335v3.892c0 .738-.598 1.336-1.335 1.336h-2.557v5.109s6.736 1.243 7.298-3.644z"/>
            <path fill="#FEF3BF" fill-rule="nonzero" d="M208.112 204.2h-.979s.432-3.334-.02-5.547v-.01c-.018-.196-.286-3.123.21-5.552.115-.63.315-1.24.595-1.815.153-.308.353-.591.593-.839 2.02-2.02 4.04-4.04 4.407-6.06.367-2.02-.367-7.529 1.102-9.365 1.469-1.837 4.407-2.571 5.141-4.04.735-1.47.735-3.122 2.204-2.388 8.63 6.795 2.558 9.061.55 15.977-1.652 5.693 3.123 7.345-7.528 12.854-1.715.887-4.224 6.795-4.224 6.795l-2.05-.01z"/>
            <path fill="#FEF3BF" fill-rule="nonzero" d="M207.203 192.793c-.496 2.432-.228 5.357-.21 5.552a4.03 4.03 0 0 0-.437-1.236c-.918-1.543-2.242-3.476-2.637-6.016a9.777 9.777 0 0 1-.117-1.513c0-3.306-4.04-17.262.55-18.18 4.591-.919 5.614 5.852 3.122 14.323-.817 2.777.11 4.828.325 5.247a7.065 7.065 0 0 0-.596 1.823z"/>
            <path fill="#FEF3BF" fill-rule="nonzero" d="M205.191 204.096h-1.652s-.827-4.591-5.418-7.713c-4.59-3.122-4.407-6.06-5.325-7.162-.918-1.102-4.958-10.835-1.285-11.936 3.672-1.102 7.345 4.407 7.345 5.876 0 2.788 4.626 6.06 5.26 8.124.394 2.54 1.71 4.473 2.636 6.016a4.03 4.03 0 0 1 .437 1.247c.452 2.213.02 5.548.02 5.548h-2.018z"/>
            <path stroke="#FEEE00" stroke-width=".5" d="M204.979 204.213s.826-2.57-1.01-5.325c-1.837-2.755-3.122-3.122-3.673-4.958-.551-1.837-2.387-4.959-3.49-5.142M207.141 192.753c-.034-.22-3.024-3.654-2.484-7.795.55-4.224.734-5.877.734-5.877M207.998 204.122s.765-5.693 2.05-7.346c1.286-1.653 3.857-3.856 4.775-6.978.918-3.122 1.102-4.407 1.102-4.407"/>
            <g>
                <path fill="#FFC453" fill-rule="nonzero" d="M40.379 94.464a1.102 1.102 0 1 1-.003 2.203 1.102 1.102 0 0 1 .003-2.203z"/>
                <g transform="translate(-27.494 66)">
                    <g fill-rule="nonzero">
                        <use fill="#000" filter="url(#d)" xlink:href="#e"/>
                        <use fill="#FFF889" xlink:href="#e"/>
                    </g>
                    <path fill="#FFC453" fill-rule="nonzero" d="M50.611 10.467a1.47 1.47 0 1 1 0 2.938 1.47 1.47 0 0 1 0-2.938z"/>
                    <ellipse cx="26.463" cy="31.677" fill="#FFC453" fill-rule="nonzero" rx="1.377" ry="1.377"/>
                    <path stroke="#F2EB7E" stroke-width=".552" d="M27.657 30.851c6.706-7.867 13.618-16.022 21.669-18.18M51.608 13.014c5.877 3.74 11.725 7.559 15.534 15.729"/>
                </g>
            </g>
        </g>
    </g>
</svg>
